<svg width="382" height="80" viewBox="0 0 382 80" fill="none" xmlns="http://www.w3.org/2000/svg"><path d="M122.458 22.0315V26.9882H113.927V50.4718H109.064V26.9882H100.533V22.0315H122.458Z" fill="#2E2E2E"/><path d="M132.173 51C130.339 51 128.665 50.5192 127.15 49.5577C125.649 48.5961 124.446 47.3028 123.542 45.6776C122.652 44.0524 122.207 42.258 122.207 40.2942C122.207 38.818 122.466 37.4367 122.984 36.1501C123.503 34.8499 124.213 33.7123 125.117 32.7372C126.034 31.7486 127.097 30.9766 128.306 30.4214C129.515 29.8661 130.804 29.5885 132.173 29.5885C133.727 29.5885 135.149 29.927 136.438 30.6042C137.74 31.2678 138.843 32.182 139.747 33.3467C140.65 34.5114 141.308 35.8386 141.72 37.3283C142.132 38.818 142.225 40.3755 141.999 42.0007H127.429C127.615 42.7591 127.921 43.443 128.346 44.0524C128.771 44.6483 129.309 45.1291 129.96 45.4948C130.611 45.8469 131.349 46.0297 132.173 46.0432C133.023 46.0568 133.794 45.8536 134.485 45.4338C135.189 45.0004 135.774 44.4181 136.239 43.6868L141.202 44.865C140.391 46.6662 139.182 48.1424 137.574 49.2936C135.966 50.4312 134.166 51 132.173 51ZM127.27 38.2831H137.076C136.93 37.4705 136.617 36.7392 136.139 36.0891C135.674 35.4255 135.096 34.8973 134.405 34.5046C133.714 34.1118 132.97 33.9155 132.173 33.9155C131.375 33.9155 130.638 34.1118 129.96 34.5046C129.283 34.8838 128.705 35.4052 128.226 36.0688C127.761 36.7189 127.442 37.457 127.27 38.2831Z" fill="#2E2E2E"/><path d="M160.348 30.1573H165.211V50.4718H160.348L160.129 47.9528C159.584 48.8602 158.86 49.5983 157.956 50.1671C157.066 50.7224 156.009 51 154.787 51C153.312 51 151.93 50.7156 150.641 50.1468C149.352 49.578 148.216 48.7925 147.233 47.7903C146.263 46.7881 145.499 45.6302 144.941 44.3165C144.396 43.0028 144.124 41.5944 144.124 40.0911C144.124 38.642 144.383 37.2809 144.901 36.0079C145.433 34.7348 146.17 33.6175 147.113 32.656C148.057 31.6944 149.146 30.9428 150.382 30.401C151.618 29.8593 152.947 29.5885 154.368 29.5885C155.684 29.5885 156.86 29.8864 157.896 30.4823C158.946 31.0782 159.836 31.8366 160.567 32.7575L160.348 30.1573ZM154.667 46.2261C155.704 46.2261 156.621 45.962 157.418 45.4338C158.215 44.9056 158.84 44.1946 159.292 43.3008C159.743 42.3934 159.969 41.398 159.969 40.3145C159.969 39.2176 159.743 38.2221 159.292 37.3283C158.84 36.4209 158.209 35.7031 157.398 35.175C156.601 34.6468 155.691 34.3827 154.667 34.3827C153.644 34.3827 152.708 34.6536 151.857 35.1953C151.02 35.7235 150.349 36.4345 149.844 37.3283C149.352 38.2221 149.107 39.2176 149.107 40.3145C149.107 41.4115 149.359 42.4069 149.864 43.3008C150.369 44.1946 151.04 44.9056 151.877 45.4338C152.727 45.962 153.658 46.2261 154.667 46.2261Z" fill="#2E2E2E"/><path d="M169.183 50.4718V30.1573H174.046V31.9653C174.724 31.2339 175.534 30.6584 176.478 30.2385C177.421 29.8052 178.438 29.5885 179.527 29.5885C180.909 29.5885 182.178 29.9203 183.334 30.5839C184.503 31.2475 185.433 32.1346 186.124 33.2451C186.829 32.1346 187.759 31.2475 188.915 30.5839C190.071 29.9203 191.34 29.5885 192.722 29.5885C194.183 29.5885 195.505 29.9541 196.688 30.6855C197.884 31.4032 198.834 32.3716 199.538 33.5904C200.256 34.7958 200.615 36.1433 200.615 37.633V50.4718H195.751V38.9535C195.751 38.168 195.559 37.4502 195.173 36.8001C194.801 36.1365 194.296 35.6083 193.659 35.2156C193.034 34.8093 192.33 34.6062 191.546 34.6062C190.762 34.6062 190.051 34.8025 189.413 35.1953C188.789 35.5745 188.284 36.0891 187.898 36.7392C187.513 37.3893 187.32 38.1273 187.32 38.9535V50.4718H182.457V38.9535C182.457 38.1273 182.271 37.3893 181.899 36.7392C181.527 36.0891 181.022 35.5745 180.384 35.1953C179.746 34.8025 179.036 34.6062 178.252 34.6062C177.481 34.6062 176.777 34.8093 176.139 35.2156C175.501 35.6083 174.989 36.1365 174.604 36.8001C174.232 37.4502 174.046 38.168 174.046 38.9535V50.4718H169.183Z" fill="#2E2E2E"/><path d="M214.184 50.4718L219.605 22.0315H223.632L230.428 40.2536L237.225 22.0315H241.251L246.672 50.4718H241.709L238.361 32.8794L232.082 49.8218H228.754L222.476 32.8794L219.147 50.4718H214.184Z" fill="#2E2E2E"/><path d="M258.106 51C256.273 51 254.598 50.5192 253.084 49.5577C251.582 48.5961 250.38 47.3028 249.476 45.6776C248.586 44.0524 248.141 42.258 248.141 40.2942C248.141 38.818 248.4 37.4367 248.918 36.1501C249.436 34.8499 250.147 33.7123 251.051 32.7372C251.967 31.7486 253.03 30.9766 254.24 30.4214C255.449 29.8661 256.738 29.5885 258.106 29.5885C259.661 29.5885 261.083 29.927 262.372 30.6042C263.674 31.2678 264.777 32.182 265.68 33.3467C266.584 34.5114 267.242 35.8386 267.653 37.3283C268.065 38.818 268.158 40.3755 267.932 42.0007H253.363C253.549 42.7591 253.854 43.443 254.279 44.0524C254.705 44.6483 255.243 45.1291 255.894 45.4948C256.545 45.8469 257.282 46.0297 258.106 46.0432C258.957 46.0568 259.727 45.8536 260.418 45.4338C261.123 45.0004 261.707 44.4181 262.172 43.6868L267.135 44.865C266.325 46.6662 265.115 48.1424 263.508 49.2936C261.9 50.4312 260.099 51 258.106 51ZM253.203 38.2831H263.009C262.863 37.4705 262.551 36.7392 262.073 36.0891C261.608 35.4255 261.03 34.8973 260.339 34.5046C259.648 34.1118 258.904 33.9155 258.106 33.9155C257.309 33.9155 256.572 34.1118 255.894 34.5046C255.216 34.8838 254.638 35.4052 254.16 36.0688C253.695 36.7189 253.376 37.457 253.203 38.2831Z" fill="#2E2E2E"/><path d="M271.175 50.4718V30.1573H276.039V31.9653C276.716 31.2339 277.527 30.6584 278.47 30.2385C279.414 29.8052 280.43 29.5885 281.52 29.5885C282.902 29.5885 284.171 29.9203 285.327 30.5839C286.496 31.2475 287.426 32.1346 288.117 33.2451C288.821 32.1346 289.751 31.2475 290.907 30.5839C292.063 29.9203 293.332 29.5885 294.714 29.5885C296.176 29.5885 297.498 29.9541 298.681 30.6855C299.877 31.4032 300.827 32.3716 301.531 33.5904C302.248 34.7958 302.607 36.1433 302.607 37.633V50.4718H297.744V38.9535C297.744 38.168 297.551 37.4502 297.166 36.8001C296.794 36.1365 296.289 35.6083 295.651 35.2156C295.027 34.8093 294.322 34.6062 293.538 34.6062C292.754 34.6062 292.044 34.8025 291.406 35.1953C290.781 35.5745 290.276 36.0891 289.891 36.7392C289.506 37.3893 289.313 38.1273 289.313 38.9535V50.4718H284.45V38.9535C284.45 38.1273 284.264 37.3893 283.892 36.7392C283.52 36.0891 283.015 35.5745 282.377 35.1953C281.739 34.8025 281.028 34.6062 280.244 34.6062C279.473 34.6062 278.769 34.8093 278.131 35.2156C277.494 35.6083 276.982 36.1365 276.597 36.8001C276.225 37.4502 276.039 38.168 276.039 38.9535V50.4718H271.175Z" fill="#2E2E2E"/><path d="M317.321 29.5885C319.261 29.5885 321.028 30.0692 322.622 31.0308C324.217 31.9924 325.486 33.2857 326.429 34.9109C327.373 36.5225 327.844 38.3102 327.844 40.2739C327.844 41.7501 327.572 43.1383 327.027 44.4384C326.482 45.7385 325.725 46.8829 324.755 47.8716C323.798 48.8467 322.682 49.6118 321.406 50.1671C320.144 50.7224 318.782 51 317.321 51C316.072 51 314.962 50.7156 313.992 50.1468C313.035 49.5644 312.231 48.8128 311.58 47.8919V50.4718H306.717V20H311.58V32.6966C312.231 31.7757 313.035 31.0308 313.992 30.462C314.962 29.8796 316.072 29.5885 317.321 29.5885ZM317.261 46.2058C318.297 46.2058 319.234 45.9417 320.071 45.4135C320.921 44.8718 321.599 44.154 322.104 43.2602C322.609 42.3663 322.861 41.3709 322.861 40.2739C322.861 39.1905 322.609 38.2018 322.104 37.308C321.599 36.4006 320.921 35.6828 320.071 35.1547C319.221 34.6265 318.284 34.3624 317.261 34.3624C316.251 34.3624 315.347 34.6332 314.55 35.175C313.753 35.7031 313.128 36.4209 312.677 37.3283C312.225 38.2221 311.999 39.204 311.999 40.2739C311.999 41.3709 312.225 42.3731 312.677 43.2805C313.128 44.1743 313.753 44.8853 314.55 45.4135C315.347 45.9417 316.251 46.2058 317.261 46.2058Z" fill="#2E2E2E"/><path d="M339.817 51C337.983 51 336.309 50.5192 334.794 49.5577C333.293 48.5961 332.09 47.3028 331.187 45.6776C330.297 44.0524 329.851 42.258 329.851 40.2942C329.851 38.818 330.111 37.4367 330.629 36.1501C331.147 34.8499 331.858 33.7123 332.761 32.7372C333.678 31.7486 334.741 30.9766 335.95 30.4214C337.16 29.8661 338.449 29.5885 339.817 29.5885C341.372 29.5885 342.794 29.927 344.082 30.6042C345.385 31.2678 346.488 32.182 347.391 33.3467C348.295 34.5114 348.952 35.8386 349.364 37.3283C349.776 38.818 349.869 40.3755 349.643 42.0007H335.073C335.259 42.7591 335.565 43.443 335.99 44.0524C336.416 44.6483 336.954 45.1291 337.605 45.4948C338.256 45.8469 338.993 46.0297 339.817 46.0432C340.668 46.0568 341.438 45.8536 342.129 45.4338C342.833 45.0004 343.418 44.4181 343.883 43.6868L348.846 44.865C348.036 46.6662 346.826 48.1424 345.219 49.2936C343.611 50.4312 341.81 51 339.817 51ZM334.914 38.2831H344.72C344.574 37.4705 344.262 36.7392 343.783 36.0891C343.318 35.4255 342.74 34.8973 342.049 34.5046C341.359 34.1118 340.614 33.9155 339.817 33.9155C339.02 33.9155 338.282 34.1118 337.605 34.5046C336.927 34.8838 336.349 35.4052 335.871 36.0688C335.406 36.7189 335.087 37.457 334.914 38.2831Z" fill="#2E2E2E"/><path d="M352.906 50.4718L352.886 30.1573H357.749L357.769 31.9653C358.447 31.2339 359.258 30.6584 360.201 30.2385C361.144 29.8052 362.161 29.5885 363.251 29.5885C363.981 29.5885 364.712 29.6968 365.443 29.9135L363.53 34.9109C363.025 34.7077 362.52 34.6062 362.015 34.6062C361.231 34.6062 360.513 34.8025 359.862 35.1953C359.224 35.5745 358.713 36.0959 358.327 36.7595C357.955 37.4096 357.769 38.1341 357.769 38.9332V50.4718H352.906Z" fill="#2E2E2E"/><path d="M373.481 50.8375C372.445 50.7698 371.441 50.5599 370.471 50.2077C369.515 49.8421 368.664 49.3477 367.92 48.7248C367.176 48.1018 366.605 47.3569 366.206 46.4902L370.312 44.7025C370.471 44.9734 370.73 45.2645 371.089 45.576C371.448 45.874 371.873 46.1245 372.365 46.3277C372.87 46.5308 373.421 46.6324 374.019 46.6324C374.524 46.6324 375.002 46.5647 375.454 46.4292C375.919 46.2803 376.291 46.0568 376.57 45.7588C376.863 45.4609 377.009 45.0749 377.009 44.6009C377.009 44.0998 376.836 43.7138 376.491 43.443C376.158 43.1586 375.733 42.9487 375.215 42.8132C374.71 42.6643 374.218 42.5288 373.74 42.4069C372.478 42.1496 371.302 41.7501 370.212 41.2084C369.136 40.6667 368.266 39.9692 367.601 39.116C366.95 38.2492 366.625 37.2064 366.625 35.9875C366.625 34.6468 366.97 33.4889 367.661 32.5138C368.365 31.5387 369.275 30.787 370.392 30.2588C371.521 29.7307 372.737 29.4666 374.039 29.4666C375.62 29.4666 377.069 29.8052 378.384 30.4823C379.713 31.1459 380.763 32.0872 381.533 33.306L377.686 35.6219C377.5 35.2969 377.241 34.9989 376.909 34.728C376.577 34.4436 376.198 34.2134 375.773 34.0374C375.348 33.8478 374.903 33.7394 374.438 33.7123C373.84 33.6852 373.295 33.7394 372.803 33.8748C372.312 34.0103 371.913 34.2405 371.607 34.5655C371.315 34.8906 371.169 35.3239 371.169 35.8657C371.169 36.3803 371.368 36.7663 371.767 37.0236C372.165 37.2674 372.644 37.457 373.202 37.5924C373.773 37.7278 374.318 37.8768 374.836 38.0393C376.006 38.4321 377.102 38.9128 378.125 39.4817C379.161 40.0505 379.992 40.7479 380.616 41.574C381.241 42.4002 381.54 43.3888 381.513 44.54C381.513 45.8536 381.128 47.0048 380.357 47.9934C379.587 48.9685 378.59 49.7134 377.368 50.228C376.158 50.7427 374.863 50.9458 373.481 50.8375Z" fill="#2E2E2E"/><circle cx="40.7334" cy="40" r="40" fill="url(#paint0_linear_25_142)"/><path fill-rule="evenodd" clip-rule="evenodd" d="M40.7267 22.3999C36.2289 22.3999 32.5517 26.1225 32.5517 30.6606C32.5517 35.1986 36.2289 38.9088 40.7267 38.9088C45.2245 38.9088 48.914 35.1986 48.914 30.6606C48.914 26.1225 45.2245 22.3999 40.7267 22.3999ZM26.6491 31.308C25.3475 31.308 24.1003 31.8292 23.179 32.7574C22.259 33.6857 21.7424 34.9453 21.7424 36.2586C21.7424 37.5719 22.259 38.8302 23.179 39.7598C24.099 40.688 25.3475 41.2092 26.6491 41.2092C27.9507 41.2092 29.1978 40.688 30.1192 39.7598C31.0392 38.8316 31.5558 37.5719 31.5558 36.2586C31.5558 34.9453 31.0392 33.687 30.1192 32.7574C29.1978 31.8292 27.9507 31.308 26.6491 31.308ZM54.818 31.308C53.5163 31.308 52.2692 31.8292 51.3479 32.7574C50.4279 33.6857 49.9113 34.9453 49.9113 36.2586C49.9113 37.5719 50.4279 38.8302 51.3479 39.7598C52.2679 40.688 53.5163 41.2092 54.818 41.2092C56.1196 41.2092 57.3667 40.688 58.2881 39.7598C59.2081 38.8316 59.7246 37.5719 59.7246 36.2586C59.7246 34.9453 59.2081 33.687 58.2881 32.7574C57.3667 31.8292 56.1196 31.308 54.818 31.308ZM40.7267 40.559C37.183 40.559 33.6298 41.4268 30.8275 43.3107C28.0253 45.1961 26.0108 48.2559 26.0108 52.1063C26.0108 54.8209 28.2338 57.0638 30.9243 57.0638H50.5441C53.2346 57.0638 55.4576 54.8209 55.4576 52.1063C55.4576 48.2559 53.4418 45.1961 50.6409 43.3107C47.8373 41.4268 44.2704 40.559 40.7267 40.559ZM24.422 43.0561C22.9391 43.2775 21.3185 43.7038 19.7838 44.478C17.4273 45.6662 15.2002 47.9008 15.2002 51.1105C15.2002 53.825 17.4164 56.0611 20.1069 56.0611H23.4543C22.398 54.6694 21.7383 52.9614 21.7383 51.1077C21.7397 48.059 22.796 45.288 24.422 43.0561ZM57.0505 43.0616C58.6738 45.2921 59.7301 48.0617 59.7301 51.1063C59.7301 52.9628 59.0704 54.6735 58.0114 56.0666H61.3602C64.0507 56.0666 66.2669 53.8305 66.2669 51.116C66.2669 47.9063 64.0398 45.6717 61.6832 44.4835C60.1499 43.7107 58.532 43.283 57.0505 43.0616Z" fill="white"/><defs><linearGradient id="paint0_linear_25_142" x1="5.62229" y1="82.6667" x2="74.5112" y2="12.4444" gradientUnits="userSpaceOnUse"><stop stop-color="#680BEC"/><stop offset="1" stop-color="#B71CEA"/></linearGradient></defs></svg>